<svg xmlns="http://www.w3.org/2000/svg" fill="none" viewBox="0 0 31 32">
  <path fill="#fff" d="M15.659 29.334a13.31 13.31 0 0 1-9.477-3.926A13.358 13.358 0 0 1 3.737 9.8a.958.958 0 0 1 1.703.876 11.45 11.45 0 0 0 2.096 13.379 11.41 11.41 0 0 0 8.123 3.365 11.41 11.41 0 0 0 8.123-3.365 11.415 11.415 0 0 0 3.364-8.123c0-3.07-1.194-5.954-3.364-8.123a11.414 11.414 0 0 0-8.123-3.365 11.412 11.412 0 0 0-8.123 3.365.957.957 0 1 1-1.354-1.354A13.313 13.313 0 0 1 15.66 2.53c3.58 0 6.946 1.395 9.476 3.926a13.311 13.311 0 0 1 3.926 9.477 13.31 13.31 0 0 1-3.926 9.476 13.308 13.308 0 0 1-9.476 3.926Z"/>
  <path fill="#fff" d="M20.445 20.718a.952.952 0 0 1-.598-.21l-4.786-3.829a.956.956 0 0 1-.36-.747V8.273a.957.957 0 1 1 1.915 0v7.2l4.428 3.54a.957.957 0 0 1-.6 1.705Z"/>
</svg>
