<svg xmlns="http://www.w3.org/2000/svg" fill="none" viewBox="0 0 30 21">
  <path fill="#fff" fill-rule="evenodd" d="M8.695 18.918a1.04 1.04 0 0 1 1.04-1.039h18.708a1.04 1.04 0 1 1 0 2.079H9.735a1.04 1.04 0 0 1-1.04-1.04Zm0-8.315a1.04 1.04 0 0 1 1.04-1.039h18.708a1.04 1.04 0 1 1 0 2.079H9.735a1.04 1.04 0 0 1-1.04-1.04Zm0-8.315a1.04 1.04 0 0 1 1.04-1.039h18.708a1.04 1.04 0 1 1 0 2.079H9.735a1.04 1.04 0 0 1-1.04-1.04ZM2.46 4.368a2.079 2.079 0 1 0 0-4.158 2.079 2.079 0 0 0 0 4.157Zm0 8.314a2.079 2.079 0 1 0 0-4.157 2.079 2.079 0 0 0 0 4.157Zm0 8.315a2.079 2.079 0 1 0 0-4.157 2.079 2.079 0 0 0 0 4.157Z" clip-rule="evenodd"/>
</svg>
